<?xml version="1.0"?>
<!DOCTYPE svg PUBLIC "-//W3C//DTD SVG 1.1//EN" "http://www.w3.org/Graphics/SVG/1.1/DTD/svg11.dtd">
<svg width="18.23379718051186mm" height="18.267477773464403mm" viewBox="0 0 18.23379718051186 18.267477773464403" xmlns="http://www.w3.org/2000/svg" version="1.1">
<g id="Shape2DView002" transform="translate(9.116899,9.133739) scale(1,-1)">
<path id="Shape2DView002_nwe0000"  d="M -8.938135872799924 -8.954976309142129 L -8.938135872799927 8.943677843016353 " stroke="#191919" stroke-width="0.35 px" style="stroke-width:0.35;stroke-miterlimit:4;stroke-dasharray:none;stroke-linecap:square;fill:none;fill-opacity:1;fill-rule: evenodd"/>
<path id="Shape2DView002_nwe0001"  d="M -8.938135872799931 8.943677843016353 L 8.938135872799927 8.95497602941027 " stroke="#191919" stroke-width="0.35 px" style="stroke-width:0.35;stroke-miterlimit:4;stroke-dasharray:none;stroke-linecap:square;fill:none;fill-opacity:1;fill-rule: evenodd"/>
<path id="Shape2DView002_nwe0002"  d="M 8.938135872799924 8.954976029410275 L 8.938135872799927 -8.943678122748207 " stroke="#191919" stroke-width="0.35 px" style="stroke-width:0.35;stroke-miterlimit:4;stroke-dasharray:none;stroke-linecap:square;fill:none;fill-opacity:1;fill-rule: evenodd"/>
<path id="Shape2DView002_nwe0003"  d="M 8.938135872799931 -8.943678122748207 L -8.938135872799927 -8.954976309142124 " stroke="#191919" stroke-width="0.35 px" style="stroke-width:0.35;stroke-miterlimit:4;stroke-dasharray:none;stroke-linecap:square;fill:none;fill-opacity:1;fill-rule: evenodd"/>
<path id="Shape2DView002_nwe0004"  d="M -8.239063793363062 -3.5049442499388035 L -8.115438972926558 -4.0471800122657084 L -7.769049923463416 -4.481863064713022 L -7.268503244402719 -4.722899097705764 L -6.712938344334597 -4.722547968796772 L -6.2123916652739 -4.480879223372784 L -5.86600261581076 -4.045758320337681 L -5.742377795374256 -3.50336629094524 L -5.8660026158107605 -2.9611305286183347 L -6.212391665273901 -2.526447476171021 L -6.712938344334598 -2.2854114431782793 L -7.26850324440272 -2.285762572087272 L -7.769049923463416 -2.527431317511259 L -8.115438972926558 -2.9625522205463612 L -8.239063793363062 -3.504944249938803 " stroke="#191919" stroke-width="0.35 px" style="stroke-width:0.35;stroke-miterlimit:4;stroke-dasharray:none;stroke-linecap:square;fill:none;fill-opacity:1;fill-rule: evenodd"/>
<path id="Shape2DView002_nwe0005"  d="M 5.742377795374256 -3.4961076795748447 L 5.866002615810761 -4.03834344190175 L 6.212391665273902 -4.473026494349063 L 6.7129383443345985 -4.714062527341805 L 7.268503244402721 -4.713711398432813 L 7.769049923463418 -4.472042653008825 L 8.115438972926558 -4.036921749973723 L 8.239063793363062 -3.4945297205812813 L 8.115438972926558 -2.952293958254376 L 7.769049923463417 -2.5176109058070626 L 7.26850324440272 -2.2765748728143205 L 6.712938344334598 -2.276926001723313 L 6.212391665273902 -2.5185947471473007 L 5.8660026158107605 -2.9537156501824025 L 5.742377795374256 -3.4961076795748443 " stroke="#191919" stroke-width="0.35 px" style="stroke-width:0.35;stroke-miterlimit:4;stroke-dasharray:none;stroke-linecap:square;fill:none;fill-opacity:1;fill-rule: evenodd"/>
<title>b'Shape2DView002'</title>
</g>
</svg>